<mxfile host="app.diagrams.net" modified="2021-10-28T03:01:14.239Z" agent="5.0 (Macintosh; Intel Mac OS X 10_14_5) AppleWebKit/537.36 (KHTML, like Gecko) Chrome/93.0.4577.82 Safari/537.36" etag="SCmXQ30CdlE3M69Zm_m2" version="15.5.2" type="github">
  <diagram id="C5RBs43oDa-KdzZeNtuy" name="Page-1">
    <mxGraphModel dx="1773" dy="1815" grid="1" gridSize="10" guides="1" tooltips="1" connect="1" arrows="1" fold="1" page="1" pageScale="1" pageWidth="827" pageHeight="1169" math="0" shadow="0">
      <root>
        <mxCell id="WIyWlLk6GJQsqaUBKTNV-0" />
        <mxCell id="WIyWlLk6GJQsqaUBKTNV-1" parent="WIyWlLk6GJQsqaUBKTNV-0" />
        <mxCell id="TSMwA70nFVANoA3377Jf-29" value="" style="rounded=0;whiteSpace=wrap;html=1;fillColor=none;strokeWidth=2;dashed=1;" vertex="1" parent="WIyWlLk6GJQsqaUBKTNV-1">
          <mxGeometry x="3021" y="140" width="269" height="170" as="geometry" />
        </mxCell>
        <mxCell id="TSMwA70nFVANoA3377Jf-27" value="" style="rounded=0;whiteSpace=wrap;html=1;fillColor=none;strokeWidth=2;dashed=1;" vertex="1" parent="WIyWlLk6GJQsqaUBKTNV-1">
          <mxGeometry x="2710" y="250" width="300" height="160" as="geometry" />
        </mxCell>
        <mxCell id="TSMwA70nFVANoA3377Jf-25" value="" style="rounded=0;whiteSpace=wrap;html=1;fillColor=none;strokeWidth=2;dashed=1;" vertex="1" parent="WIyWlLk6GJQsqaUBKTNV-1">
          <mxGeometry x="2610" y="130" width="320" height="100" as="geometry" />
        </mxCell>
        <mxCell id="TSMwA70nFVANoA3377Jf-31" value="" style="rounded=0;whiteSpace=wrap;html=1;fillColor=none;strokeWidth=2;dashed=1;" vertex="1" parent="WIyWlLk6GJQsqaUBKTNV-1">
          <mxGeometry x="2338" y="160" width="112" height="270" as="geometry" />
        </mxCell>
        <mxCell id="nFD_2oVIBPOKL1Sue1Ed-45" value="" style="rounded=0;whiteSpace=wrap;html=1;fontSize=17;strokeWidth=2;fillColor=none;dashed=1;" parent="WIyWlLk6GJQsqaUBKTNV-1" vertex="1">
          <mxGeometry y="160" width="780" height="400" as="geometry" />
        </mxCell>
        <mxCell id="nFD_2oVIBPOKL1Sue1Ed-99" value="" style="rounded=0;whiteSpace=wrap;html=1;dashed=1;fontSize=15;strokeWidth=2;fillColor=none;" parent="WIyWlLk6GJQsqaUBKTNV-1" vertex="1">
          <mxGeometry x="939" y="160" width="700" height="350" as="geometry" />
        </mxCell>
        <mxCell id="nFD_2oVIBPOKL1Sue1Ed-34" style="edgeStyle=orthogonalEdgeStyle;curved=1;rounded=0;orthogonalLoop=1;jettySize=auto;html=1;exitX=0.5;exitY=1;exitDx=0;exitDy=0;fontSize=17;strokeWidth=2;" parent="WIyWlLk6GJQsqaUBKTNV-1" source="nFD_2oVIBPOKL1Sue1Ed-8" target="nFD_2oVIBPOKL1Sue1Ed-21" edge="1">
          <mxGeometry relative="1" as="geometry" />
        </mxCell>
        <mxCell id="nFD_2oVIBPOKL1Sue1Ed-38" style="edgeStyle=orthogonalEdgeStyle;curved=1;rounded=0;orthogonalLoop=1;jettySize=auto;html=1;exitX=0;exitY=0.5;exitDx=0;exitDy=0;entryX=1;entryY=0.5;entryDx=0;entryDy=0;entryPerimeter=0;fontSize=17;strokeWidth=2;dashed=1;" parent="WIyWlLk6GJQsqaUBKTNV-1" source="nFD_2oVIBPOKL1Sue1Ed-8" target="nFD_2oVIBPOKL1Sue1Ed-22" edge="1">
          <mxGeometry relative="1" as="geometry" />
        </mxCell>
        <mxCell id="nFD_2oVIBPOKL1Sue1Ed-39" value="failover" style="edgeLabel;html=1;align=center;verticalAlign=middle;resizable=0;points=[];fontSize=17;" parent="nFD_2oVIBPOKL1Sue1Ed-38" vertex="1" connectable="0">
          <mxGeometry y="-3" relative="1" as="geometry">
            <mxPoint as="offset" />
          </mxGeometry>
        </mxCell>
        <mxCell id="nFD_2oVIBPOKL1Sue1Ed-8" value="" style="rounded=0;whiteSpace=wrap;html=1;strokeWidth=2;fillColor=#f8cecc;strokeColor=#b85450;" parent="WIyWlLk6GJQsqaUBKTNV-1" vertex="1">
          <mxGeometry x="160" y="430" width="120" height="100" as="geometry" />
        </mxCell>
        <mxCell id="nFD_2oVIBPOKL1Sue1Ed-0" value="&lt;font style=&quot;font-size: 15px&quot;&gt;lru&lt;br&gt;cache&lt;/font&gt;" style="shape=cylinder3;whiteSpace=wrap;html=1;boundedLbl=1;backgroundOutline=1;size=15;fillColor=#d5e8d4;strokeColor=#82b366;strokeWidth=2;" parent="WIyWlLk6GJQsqaUBKTNV-1" vertex="1">
          <mxGeometry x="190" y="170" width="60" height="80" as="geometry" />
        </mxCell>
        <mxCell id="nFD_2oVIBPOKL1Sue1Ed-2" value="read" style="edgeStyle=orthogonalEdgeStyle;rounded=0;orthogonalLoop=1;jettySize=auto;html=1;exitX=0;exitY=0.5;exitDx=0;exitDy=0;fontSize=17;strokeWidth=2;" parent="WIyWlLk6GJQsqaUBKTNV-1" source="nFD_2oVIBPOKL1Sue1Ed-1" target="nFD_2oVIBPOKL1Sue1Ed-0" edge="1">
          <mxGeometry relative="1" as="geometry" />
        </mxCell>
        <mxCell id="nFD_2oVIBPOKL1Sue1Ed-25" value="miss data" style="edgeStyle=orthogonalEdgeStyle;rounded=0;orthogonalLoop=1;jettySize=auto;html=1;fontSize=17;strokeWidth=2;" parent="WIyWlLk6GJQsqaUBKTNV-1" source="nFD_2oVIBPOKL1Sue1Ed-1" target="nFD_2oVIBPOKL1Sue1Ed-3" edge="1">
          <mxGeometry relative="1" as="geometry" />
        </mxCell>
        <mxCell id="nFD_2oVIBPOKL1Sue1Ed-1" value="&lt;font style=&quot;font-size: 17px&quot;&gt;&lt;i&gt;local fetcher&lt;/i&gt;&lt;/font&gt;" style="rounded=0;whiteSpace=wrap;html=1;strokeWidth=2;fillColor=#f8cecc;strokeColor=#b85450;" parent="WIyWlLk6GJQsqaUBKTNV-1" vertex="1">
          <mxGeometry x="407" y="185" width="106" height="50" as="geometry" />
        </mxCell>
        <mxCell id="nFD_2oVIBPOKL1Sue1Ed-30" style="edgeStyle=orthogonalEdgeStyle;curved=1;rounded=0;orthogonalLoop=1;jettySize=auto;html=1;exitX=0.5;exitY=1;exitDx=0;exitDy=0;entryX=0.5;entryY=0;entryDx=0;entryDy=0;fontSize=17;strokeWidth=2;" parent="WIyWlLk6GJQsqaUBKTNV-1" source="nFD_2oVIBPOKL1Sue1Ed-3" target="nFD_2oVIBPOKL1Sue1Ed-8" edge="1">
          <mxGeometry relative="1" as="geometry" />
        </mxCell>
        <mxCell id="nFD_2oVIBPOKL1Sue1Ed-31" style="edgeStyle=orthogonalEdgeStyle;curved=1;rounded=0;orthogonalLoop=1;jettySize=auto;html=1;exitX=0.5;exitY=1;exitDx=0;exitDy=0;entryX=0.5;entryY=0;entryDx=0;entryDy=0;fontSize=17;strokeWidth=2;" parent="WIyWlLk6GJQsqaUBKTNV-1" source="nFD_2oVIBPOKL1Sue1Ed-3" target="nFD_2oVIBPOKL1Sue1Ed-17" edge="1">
          <mxGeometry relative="1" as="geometry" />
        </mxCell>
        <mxCell id="nFD_2oVIBPOKL1Sue1Ed-32" style="edgeStyle=orthogonalEdgeStyle;curved=1;rounded=0;orthogonalLoop=1;jettySize=auto;html=1;exitX=0.5;exitY=1;exitDx=0;exitDy=0;entryX=0.5;entryY=0;entryDx=0;entryDy=0;fontSize=17;strokeWidth=2;" parent="WIyWlLk6GJQsqaUBKTNV-1" source="nFD_2oVIBPOKL1Sue1Ed-3" target="nFD_2oVIBPOKL1Sue1Ed-9" edge="1">
          <mxGeometry relative="1" as="geometry" />
        </mxCell>
        <mxCell id="nFD_2oVIBPOKL1Sue1Ed-33" style="edgeStyle=orthogonalEdgeStyle;curved=1;rounded=0;orthogonalLoop=1;jettySize=auto;html=1;exitX=0.5;exitY=1;exitDx=0;exitDy=0;entryX=0.5;entryY=0;entryDx=0;entryDy=0;fontSize=17;strokeWidth=2;" parent="WIyWlLk6GJQsqaUBKTNV-1" source="nFD_2oVIBPOKL1Sue1Ed-3" target="nFD_2oVIBPOKL1Sue1Ed-13" edge="1">
          <mxGeometry relative="1" as="geometry" />
        </mxCell>
        <mxCell id="nFD_2oVIBPOKL1Sue1Ed-3" value="&lt;font style=&quot;font-size: 17px&quot;&gt;&lt;i&gt;hasher&lt;/i&gt;&lt;/font&gt;" style="rounded=0;whiteSpace=wrap;html=1;strokeWidth=2;fillColor=#f8cecc;strokeColor=#b85450;" parent="WIyWlLk6GJQsqaUBKTNV-1" vertex="1">
          <mxGeometry x="400" y="300" width="120" height="50" as="geometry" />
        </mxCell>
        <mxCell id="nFD_2oVIBPOKL1Sue1Ed-41" style="edgeStyle=orthogonalEdgeStyle;curved=1;rounded=0;orthogonalLoop=1;jettySize=auto;html=1;exitX=0.5;exitY=0;exitDx=0;exitDy=0;entryX=0.5;entryY=1;entryDx=0;entryDy=0;entryPerimeter=0;fontSize=17;strokeWidth=2;" parent="WIyWlLk6GJQsqaUBKTNV-1" source="nFD_2oVIBPOKL1Sue1Ed-4" target="nFD_2oVIBPOKL1Sue1Ed-0" edge="1">
          <mxGeometry relative="1" as="geometry" />
        </mxCell>
        <mxCell id="nFD_2oVIBPOKL1Sue1Ed-42" value="async write" style="edgeLabel;html=1;align=center;verticalAlign=middle;resizable=0;points=[];fontSize=17;" parent="nFD_2oVIBPOKL1Sue1Ed-41" vertex="1" connectable="0">
          <mxGeometry x="-0.04" relative="1" as="geometry">
            <mxPoint as="offset" />
          </mxGeometry>
        </mxCell>
        <mxCell id="nFD_2oVIBPOKL1Sue1Ed-4" value="&lt;font style=&quot;font-size: 17px&quot;&gt;&lt;i&gt;custom&lt;br&gt;parser&lt;br&gt;&lt;/i&gt;&lt;/font&gt;" style="rounded=0;whiteSpace=wrap;html=1;strokeWidth=2;fillColor=#f8cecc;strokeColor=#b85450;" parent="WIyWlLk6GJQsqaUBKTNV-1" vertex="1">
          <mxGeometry x="170" y="320" width="100" height="50" as="geometry" />
        </mxCell>
        <mxCell id="nFD_2oVIBPOKL1Sue1Ed-40" value="" style="edgeStyle=orthogonalEdgeStyle;curved=1;rounded=0;orthogonalLoop=1;jettySize=auto;html=1;fontSize=17;strokeWidth=2;" parent="WIyWlLk6GJQsqaUBKTNV-1" source="nFD_2oVIBPOKL1Sue1Ed-5" target="nFD_2oVIBPOKL1Sue1Ed-4" edge="1">
          <mxGeometry relative="1" as="geometry" />
        </mxCell>
        <mxCell id="nFD_2oVIBPOKL1Sue1Ed-5" value="&lt;font style=&quot;font-size: 17px&quot;&gt;bucket_0&lt;/font&gt;" style="rounded=0;whiteSpace=wrap;html=1;strokeWidth=2;fillColor=#d5e8d4;strokeColor=#82b366;" parent="WIyWlLk6GJQsqaUBKTNV-1" vertex="1">
          <mxGeometry x="167" y="440" width="106" height="40" as="geometry" />
        </mxCell>
        <mxCell id="nFD_2oVIBPOKL1Sue1Ed-6" value="&lt;font style=&quot;font-size: 17px&quot;&gt;req&lt;/font&gt;" style="rounded=0;whiteSpace=wrap;html=1;strokeWidth=2;fillColor=#d5e8d4;strokeColor=#82b366;" parent="WIyWlLk6GJQsqaUBKTNV-1" vertex="1">
          <mxGeometry x="167" y="490" width="40" height="30" as="geometry" />
        </mxCell>
        <mxCell id="nFD_2oVIBPOKL1Sue1Ed-7" value="&lt;font style=&quot;font-size: 17px&quot;&gt;resp&lt;/font&gt;" style="rounded=0;whiteSpace=wrap;html=1;strokeWidth=2;fillColor=#d5e8d4;strokeColor=#82b366;" parent="WIyWlLk6GJQsqaUBKTNV-1" vertex="1">
          <mxGeometry x="223" y="490" width="50" height="30" as="geometry" />
        </mxCell>
        <mxCell id="nFD_2oVIBPOKL1Sue1Ed-35" style="edgeStyle=orthogonalEdgeStyle;curved=1;rounded=0;orthogonalLoop=1;jettySize=auto;html=1;exitX=0.5;exitY=1;exitDx=0;exitDy=0;entryX=0.5;entryY=0;entryDx=0;entryDy=0;fontSize=17;strokeWidth=2;" parent="WIyWlLk6GJQsqaUBKTNV-1" source="nFD_2oVIBPOKL1Sue1Ed-9" target="nFD_2oVIBPOKL1Sue1Ed-21" edge="1">
          <mxGeometry relative="1" as="geometry" />
        </mxCell>
        <mxCell id="nFD_2oVIBPOKL1Sue1Ed-9" value="" style="rounded=0;whiteSpace=wrap;html=1;strokeWidth=2;fillColor=#f8cecc;strokeColor=#b85450;" parent="WIyWlLk6GJQsqaUBKTNV-1" vertex="1">
          <mxGeometry x="320" y="430" width="120" height="100" as="geometry" />
        </mxCell>
        <mxCell id="nFD_2oVIBPOKL1Sue1Ed-10" value="&lt;font style=&quot;font-size: 17px&quot;&gt;bucket_1&lt;/font&gt;" style="rounded=0;whiteSpace=wrap;html=1;strokeWidth=2;fillColor=#d5e8d4;strokeColor=#82b366;" parent="WIyWlLk6GJQsqaUBKTNV-1" vertex="1">
          <mxGeometry x="327" y="440" width="106" height="40" as="geometry" />
        </mxCell>
        <mxCell id="nFD_2oVIBPOKL1Sue1Ed-11" value="&lt;font style=&quot;font-size: 17px&quot;&gt;req&lt;/font&gt;" style="rounded=0;whiteSpace=wrap;html=1;strokeWidth=2;fillColor=#d5e8d4;strokeColor=#82b366;" parent="WIyWlLk6GJQsqaUBKTNV-1" vertex="1">
          <mxGeometry x="327" y="490" width="40" height="30" as="geometry" />
        </mxCell>
        <mxCell id="nFD_2oVIBPOKL1Sue1Ed-12" value="&lt;font style=&quot;font-size: 17px&quot;&gt;resp&lt;/font&gt;" style="rounded=0;whiteSpace=wrap;html=1;strokeWidth=2;fillColor=#d5e8d4;strokeColor=#82b366;" parent="WIyWlLk6GJQsqaUBKTNV-1" vertex="1">
          <mxGeometry x="383" y="490" width="50" height="30" as="geometry" />
        </mxCell>
        <mxCell id="nFD_2oVIBPOKL1Sue1Ed-36" style="edgeStyle=orthogonalEdgeStyle;curved=1;rounded=0;orthogonalLoop=1;jettySize=auto;html=1;exitX=0.5;exitY=1;exitDx=0;exitDy=0;entryX=0.5;entryY=0;entryDx=0;entryDy=0;fontSize=17;strokeWidth=2;" parent="WIyWlLk6GJQsqaUBKTNV-1" source="nFD_2oVIBPOKL1Sue1Ed-13" target="nFD_2oVIBPOKL1Sue1Ed-21" edge="1">
          <mxGeometry relative="1" as="geometry" />
        </mxCell>
        <mxCell id="nFD_2oVIBPOKL1Sue1Ed-13" value="" style="rounded=0;whiteSpace=wrap;html=1;strokeWidth=2;fillColor=#f8cecc;strokeColor=#b85450;" parent="WIyWlLk6GJQsqaUBKTNV-1" vertex="1">
          <mxGeometry x="480" y="430" width="120" height="100" as="geometry" />
        </mxCell>
        <mxCell id="nFD_2oVIBPOKL1Sue1Ed-14" value="&lt;font style=&quot;font-size: 17px&quot;&gt;bucket_2&lt;/font&gt;" style="rounded=0;whiteSpace=wrap;html=1;strokeWidth=2;fillColor=#d5e8d4;strokeColor=#82b366;" parent="WIyWlLk6GJQsqaUBKTNV-1" vertex="1">
          <mxGeometry x="487" y="440" width="106" height="40" as="geometry" />
        </mxCell>
        <mxCell id="nFD_2oVIBPOKL1Sue1Ed-15" value="&lt;font style=&quot;font-size: 17px&quot;&gt;req&lt;/font&gt;" style="rounded=0;whiteSpace=wrap;html=1;strokeWidth=2;fillColor=#d5e8d4;strokeColor=#82b366;" parent="WIyWlLk6GJQsqaUBKTNV-1" vertex="1">
          <mxGeometry x="487" y="490" width="40" height="30" as="geometry" />
        </mxCell>
        <mxCell id="nFD_2oVIBPOKL1Sue1Ed-16" value="&lt;font style=&quot;font-size: 17px&quot;&gt;resp&lt;/font&gt;" style="rounded=0;whiteSpace=wrap;html=1;strokeWidth=2;fillColor=#d5e8d4;strokeColor=#82b366;" parent="WIyWlLk6GJQsqaUBKTNV-1" vertex="1">
          <mxGeometry x="543" y="490" width="50" height="30" as="geometry" />
        </mxCell>
        <mxCell id="nFD_2oVIBPOKL1Sue1Ed-37" style="edgeStyle=orthogonalEdgeStyle;curved=1;rounded=0;orthogonalLoop=1;jettySize=auto;html=1;exitX=0.5;exitY=1;exitDx=0;exitDy=0;entryX=0.5;entryY=0;entryDx=0;entryDy=0;fontSize=17;strokeWidth=2;" parent="WIyWlLk6GJQsqaUBKTNV-1" source="nFD_2oVIBPOKL1Sue1Ed-17" target="nFD_2oVIBPOKL1Sue1Ed-21" edge="1">
          <mxGeometry relative="1" as="geometry" />
        </mxCell>
        <mxCell id="nFD_2oVIBPOKL1Sue1Ed-17" value="" style="rounded=0;whiteSpace=wrap;html=1;strokeWidth=2;fillColor=#f8cecc;strokeColor=#b85450;" parent="WIyWlLk6GJQsqaUBKTNV-1" vertex="1">
          <mxGeometry x="640" y="430" width="120" height="100" as="geometry" />
        </mxCell>
        <mxCell id="nFD_2oVIBPOKL1Sue1Ed-18" value="&lt;font style=&quot;font-size: 17px&quot;&gt;bucket_3&lt;/font&gt;" style="rounded=0;whiteSpace=wrap;html=1;strokeWidth=2;fillColor=#d5e8d4;strokeColor=#82b366;" parent="WIyWlLk6GJQsqaUBKTNV-1" vertex="1">
          <mxGeometry x="647" y="440" width="106" height="40" as="geometry" />
        </mxCell>
        <mxCell id="nFD_2oVIBPOKL1Sue1Ed-19" value="&lt;font style=&quot;font-size: 17px&quot;&gt;req&lt;/font&gt;" style="rounded=0;whiteSpace=wrap;html=1;strokeWidth=2;fillColor=#d5e8d4;strokeColor=#82b366;" parent="WIyWlLk6GJQsqaUBKTNV-1" vertex="1">
          <mxGeometry x="647" y="490" width="40" height="30" as="geometry" />
        </mxCell>
        <mxCell id="nFD_2oVIBPOKL1Sue1Ed-20" value="&lt;font style=&quot;font-size: 17px&quot;&gt;resp&lt;/font&gt;" style="rounded=0;whiteSpace=wrap;html=1;strokeWidth=2;fillColor=#d5e8d4;strokeColor=#82b366;" parent="WIyWlLk6GJQsqaUBKTNV-1" vertex="1">
          <mxGeometry x="703" y="490" width="50" height="30" as="geometry" />
        </mxCell>
        <mxCell id="nFD_2oVIBPOKL1Sue1Ed-21" value="&lt;font style=&quot;font-size: 17px&quot;&gt;&lt;i&gt;gcms_server&lt;/i&gt;&lt;/font&gt;" style="rounded=0;whiteSpace=wrap;html=1;strokeWidth=2;fillColor=#f8cecc;strokeColor=#b85450;" parent="WIyWlLk6GJQsqaUBKTNV-1" vertex="1">
          <mxGeometry x="421" y="600" width="106" height="50" as="geometry" />
        </mxCell>
        <mxCell id="nFD_2oVIBPOKL1Sue1Ed-22" value="&lt;font style=&quot;font-size: 15px&quot;&gt;gcms&lt;br&gt;dict&lt;/font&gt;" style="shape=cylinder3;whiteSpace=wrap;html=1;boundedLbl=1;backgroundOutline=1;size=15;fillColor=#d5e8d4;strokeColor=#82b366;strokeWidth=2;" parent="WIyWlLk6GJQsqaUBKTNV-1" vertex="1">
          <mxGeometry x="10" y="440" width="60" height="80" as="geometry" />
        </mxCell>
        <mxCell id="nFD_2oVIBPOKL1Sue1Ed-24" value="" style="edgeStyle=orthogonalEdgeStyle;rounded=0;orthogonalLoop=1;jettySize=auto;html=1;fontSize=17;strokeWidth=2;" parent="WIyWlLk6GJQsqaUBKTNV-1" source="nFD_2oVIBPOKL1Sue1Ed-23" target="nFD_2oVIBPOKL1Sue1Ed-1" edge="1">
          <mxGeometry relative="1" as="geometry" />
        </mxCell>
        <mxCell id="nFD_2oVIBPOKL1Sue1Ed-23" value="&lt;font style=&quot;font-size: 17px&quot;&gt;id list&lt;/font&gt;" style="rounded=0;whiteSpace=wrap;html=1;fontSize=15;strokeWidth=2;fillColor=#d5e8d4;strokeColor=#82b366;" parent="WIyWlLk6GJQsqaUBKTNV-1" vertex="1">
          <mxGeometry x="432" y="100" width="56" height="40" as="geometry" />
        </mxCell>
        <mxCell id="nFD_2oVIBPOKL1Sue1Ed-44" value="&lt;i&gt;remote fetcher&lt;/i&gt;" style="text;html=1;strokeColor=none;fillColor=none;align=center;verticalAlign=middle;whiteSpace=wrap;rounded=0;fontSize=17;" parent="WIyWlLk6GJQsqaUBKTNV-1" vertex="1">
          <mxGeometry x="93" y="530" width="130" height="30" as="geometry" />
        </mxCell>
        <mxCell id="nFD_2oVIBPOKL1Sue1Ed-46" value="&lt;i&gt;&lt;font style=&quot;font-size: 17px&quot;&gt;gcms_sdk&lt;/font&gt;&lt;/i&gt;" style="text;html=1;strokeColor=none;fillColor=none;align=center;verticalAlign=middle;whiteSpace=wrap;rounded=0;dashed=1;fontSize=17;" parent="WIyWlLk6GJQsqaUBKTNV-1" vertex="1">
          <mxGeometry x="10" y="170" width="90" height="30" as="geometry" />
        </mxCell>
        <mxCell id="nFD_2oVIBPOKL1Sue1Ed-47" style="edgeStyle=orthogonalEdgeStyle;curved=1;rounded=0;orthogonalLoop=1;jettySize=auto;html=1;exitX=0.5;exitY=1;exitDx=0;exitDy=0;fontSize=17;strokeWidth=2;" parent="WIyWlLk6GJQsqaUBKTNV-1" source="nFD_2oVIBPOKL1Sue1Ed-50" target="nFD_2oVIBPOKL1Sue1Ed-82" edge="1">
          <mxGeometry relative="1" as="geometry" />
        </mxCell>
        <mxCell id="nFD_2oVIBPOKL1Sue1Ed-50" value="" style="rounded=0;whiteSpace=wrap;html=1;strokeWidth=2;fillColor=#f8cecc;strokeColor=#b85450;" parent="WIyWlLk6GJQsqaUBKTNV-1" vertex="1">
          <mxGeometry x="1029" y="440" width="120" height="50" as="geometry" />
        </mxCell>
        <mxCell id="nFD_2oVIBPOKL1Sue1Ed-51" value="&lt;font style=&quot;font-size: 15px&quot;&gt;gcms&lt;br&gt;dict&lt;/font&gt;" style="shape=cylinder3;whiteSpace=wrap;html=1;boundedLbl=1;backgroundOutline=1;size=15;fillColor=#d5e8d4;strokeColor=#82b366;strokeWidth=2;" parent="WIyWlLk6GJQsqaUBKTNV-1" vertex="1">
          <mxGeometry x="1059" y="170" width="60" height="80" as="geometry" />
        </mxCell>
        <mxCell id="nFD_2oVIBPOKL1Sue1Ed-52" value="read" style="edgeStyle=orthogonalEdgeStyle;rounded=0;orthogonalLoop=1;jettySize=auto;html=1;exitX=0;exitY=0.5;exitDx=0;exitDy=0;fontSize=17;strokeWidth=2;" parent="WIyWlLk6GJQsqaUBKTNV-1" source="nFD_2oVIBPOKL1Sue1Ed-54" target="nFD_2oVIBPOKL1Sue1Ed-51" edge="1">
          <mxGeometry relative="1" as="geometry" />
        </mxCell>
        <mxCell id="nFD_2oVIBPOKL1Sue1Ed-53" value="" style="edgeStyle=orthogonalEdgeStyle;rounded=0;orthogonalLoop=1;jettySize=auto;html=1;fontSize=17;strokeWidth=2;" parent="WIyWlLk6GJQsqaUBKTNV-1" source="nFD_2oVIBPOKL1Sue1Ed-54" target="nFD_2oVIBPOKL1Sue1Ed-59" edge="1">
          <mxGeometry relative="1" as="geometry" />
        </mxCell>
        <mxCell id="nFD_2oVIBPOKL1Sue1Ed-101" value="&lt;font style=&quot;font-size: 17px&quot;&gt;miss data&lt;/font&gt;" style="edgeLabel;html=1;align=center;verticalAlign=middle;resizable=0;points=[];fontSize=15;" parent="nFD_2oVIBPOKL1Sue1Ed-53" vertex="1" connectable="0">
          <mxGeometry x="-0.2615" y="-2" relative="1" as="geometry">
            <mxPoint as="offset" />
          </mxGeometry>
        </mxCell>
        <mxCell id="nFD_2oVIBPOKL1Sue1Ed-54" value="&lt;font style=&quot;font-size: 17px&quot;&gt;&lt;i&gt;local fetcher&lt;/i&gt;&lt;/font&gt;" style="rounded=0;whiteSpace=wrap;html=1;strokeWidth=2;fillColor=#f8cecc;strokeColor=#b85450;" parent="WIyWlLk6GJQsqaUBKTNV-1" vertex="1">
          <mxGeometry x="1276" y="185" width="106" height="50" as="geometry" />
        </mxCell>
        <mxCell id="nFD_2oVIBPOKL1Sue1Ed-55" style="edgeStyle=orthogonalEdgeStyle;curved=1;rounded=0;orthogonalLoop=1;jettySize=auto;html=1;exitX=0.5;exitY=1;exitDx=0;exitDy=0;entryX=0.5;entryY=0;entryDx=0;entryDy=0;fontSize=17;strokeWidth=2;" parent="WIyWlLk6GJQsqaUBKTNV-1" source="nFD_2oVIBPOKL1Sue1Ed-59" target="nFD_2oVIBPOKL1Sue1Ed-50" edge="1">
          <mxGeometry relative="1" as="geometry" />
        </mxCell>
        <mxCell id="nFD_2oVIBPOKL1Sue1Ed-56" style="edgeStyle=orthogonalEdgeStyle;curved=1;rounded=0;orthogonalLoop=1;jettySize=auto;html=1;exitX=0.5;exitY=1;exitDx=0;exitDy=0;entryX=0.5;entryY=0;entryDx=0;entryDy=0;fontSize=17;strokeWidth=2;" parent="WIyWlLk6GJQsqaUBKTNV-1" source="nFD_2oVIBPOKL1Sue1Ed-59" target="nFD_2oVIBPOKL1Sue1Ed-78" edge="1">
          <mxGeometry relative="1" as="geometry" />
        </mxCell>
        <mxCell id="nFD_2oVIBPOKL1Sue1Ed-57" style="edgeStyle=orthogonalEdgeStyle;curved=1;rounded=0;orthogonalLoop=1;jettySize=auto;html=1;exitX=0.5;exitY=1;exitDx=0;exitDy=0;entryX=0.5;entryY=0;entryDx=0;entryDy=0;fontSize=17;strokeWidth=2;" parent="WIyWlLk6GJQsqaUBKTNV-1" source="nFD_2oVIBPOKL1Sue1Ed-59" target="nFD_2oVIBPOKL1Sue1Ed-68" edge="1">
          <mxGeometry relative="1" as="geometry" />
        </mxCell>
        <mxCell id="nFD_2oVIBPOKL1Sue1Ed-58" style="edgeStyle=orthogonalEdgeStyle;curved=1;rounded=0;orthogonalLoop=1;jettySize=auto;html=1;exitX=0.5;exitY=1;exitDx=0;exitDy=0;entryX=0.5;entryY=0;entryDx=0;entryDy=0;fontSize=17;strokeWidth=2;" parent="WIyWlLk6GJQsqaUBKTNV-1" source="nFD_2oVIBPOKL1Sue1Ed-59" target="nFD_2oVIBPOKL1Sue1Ed-73" edge="1">
          <mxGeometry relative="1" as="geometry" />
        </mxCell>
        <mxCell id="nFD_2oVIBPOKL1Sue1Ed-59" value="&lt;font style=&quot;font-size: 17px&quot;&gt;&lt;i&gt;dispatcher&lt;/i&gt;&lt;/font&gt;" style="rounded=0;whiteSpace=wrap;html=1;strokeWidth=2;fillColor=#f8cecc;strokeColor=#b85450;" parent="WIyWlLk6GJQsqaUBKTNV-1" vertex="1">
          <mxGeometry x="1269" y="300" width="120" height="50" as="geometry" />
        </mxCell>
        <mxCell id="nFD_2oVIBPOKL1Sue1Ed-60" style="edgeStyle=orthogonalEdgeStyle;curved=1;rounded=0;orthogonalLoop=1;jettySize=auto;html=1;exitX=0.5;exitY=0;exitDx=0;exitDy=0;entryX=0.5;entryY=1;entryDx=0;entryDy=0;entryPerimeter=0;fontSize=17;strokeWidth=2;" parent="WIyWlLk6GJQsqaUBKTNV-1" source="nFD_2oVIBPOKL1Sue1Ed-62" target="nFD_2oVIBPOKL1Sue1Ed-51" edge="1">
          <mxGeometry relative="1" as="geometry" />
        </mxCell>
        <mxCell id="nFD_2oVIBPOKL1Sue1Ed-61" value="async write" style="edgeLabel;html=1;align=center;verticalAlign=middle;resizable=0;points=[];fontSize=17;" parent="nFD_2oVIBPOKL1Sue1Ed-60" vertex="1" connectable="0">
          <mxGeometry x="-0.04" relative="1" as="geometry">
            <mxPoint as="offset" />
          </mxGeometry>
        </mxCell>
        <mxCell id="nFD_2oVIBPOKL1Sue1Ed-62" value="&lt;font style=&quot;font-size: 17px&quot;&gt;&lt;i&gt;parser&lt;br&gt;&lt;/i&gt;&lt;/font&gt;" style="rounded=0;whiteSpace=wrap;html=1;strokeWidth=2;fillColor=#f8cecc;strokeColor=#b85450;" parent="WIyWlLk6GJQsqaUBKTNV-1" vertex="1">
          <mxGeometry x="1039" y="320" width="100" height="50" as="geometry" />
        </mxCell>
        <mxCell id="nFD_2oVIBPOKL1Sue1Ed-63" value="" style="edgeStyle=orthogonalEdgeStyle;curved=1;rounded=0;orthogonalLoop=1;jettySize=auto;html=1;fontSize=17;strokeWidth=2;" parent="WIyWlLk6GJQsqaUBKTNV-1" target="nFD_2oVIBPOKL1Sue1Ed-62" edge="1">
          <mxGeometry relative="1" as="geometry">
            <mxPoint x="1089" y="440" as="sourcePoint" />
          </mxGeometry>
        </mxCell>
        <mxCell id="nFD_2oVIBPOKL1Sue1Ed-65" value="&lt;font style=&quot;font-size: 17px&quot;&gt;req&lt;/font&gt;" style="rounded=0;whiteSpace=wrap;html=1;strokeWidth=2;fillColor=#d5e8d4;strokeColor=#82b366;" parent="WIyWlLk6GJQsqaUBKTNV-1" vertex="1">
          <mxGeometry x="1036" y="450" width="40" height="30" as="geometry" />
        </mxCell>
        <mxCell id="nFD_2oVIBPOKL1Sue1Ed-66" value="&lt;font style=&quot;font-size: 17px&quot;&gt;resp&lt;/font&gt;" style="rounded=0;whiteSpace=wrap;html=1;strokeWidth=2;fillColor=#d5e8d4;strokeColor=#82b366;" parent="WIyWlLk6GJQsqaUBKTNV-1" vertex="1">
          <mxGeometry x="1092" y="450" width="50" height="30" as="geometry" />
        </mxCell>
        <mxCell id="nFD_2oVIBPOKL1Sue1Ed-67" style="edgeStyle=orthogonalEdgeStyle;curved=1;rounded=0;orthogonalLoop=1;jettySize=auto;html=1;exitX=0.5;exitY=1;exitDx=0;exitDy=0;entryX=0.5;entryY=0;entryDx=0;entryDy=0;fontSize=17;strokeWidth=2;" parent="WIyWlLk6GJQsqaUBKTNV-1" source="nFD_2oVIBPOKL1Sue1Ed-68" target="nFD_2oVIBPOKL1Sue1Ed-82" edge="1">
          <mxGeometry relative="1" as="geometry" />
        </mxCell>
        <mxCell id="nFD_2oVIBPOKL1Sue1Ed-68" value="" style="rounded=0;whiteSpace=wrap;html=1;strokeWidth=2;fillColor=#f8cecc;strokeColor=#b85450;" parent="WIyWlLk6GJQsqaUBKTNV-1" vertex="1">
          <mxGeometry x="1189" y="440" width="120" height="50" as="geometry" />
        </mxCell>
        <mxCell id="nFD_2oVIBPOKL1Sue1Ed-70" value="&lt;font style=&quot;font-size: 17px&quot;&gt;req&lt;/font&gt;" style="rounded=0;whiteSpace=wrap;html=1;strokeWidth=2;fillColor=#d5e8d4;strokeColor=#82b366;" parent="WIyWlLk6GJQsqaUBKTNV-1" vertex="1">
          <mxGeometry x="1196" y="450" width="40" height="30" as="geometry" />
        </mxCell>
        <mxCell id="nFD_2oVIBPOKL1Sue1Ed-71" value="&lt;font style=&quot;font-size: 17px&quot;&gt;resp&lt;/font&gt;" style="rounded=0;whiteSpace=wrap;html=1;strokeWidth=2;fillColor=#d5e8d4;strokeColor=#82b366;" parent="WIyWlLk6GJQsqaUBKTNV-1" vertex="1">
          <mxGeometry x="1259" y="450" width="43" height="30" as="geometry" />
        </mxCell>
        <mxCell id="nFD_2oVIBPOKL1Sue1Ed-72" style="edgeStyle=orthogonalEdgeStyle;curved=1;rounded=0;orthogonalLoop=1;jettySize=auto;html=1;exitX=0.5;exitY=1;exitDx=0;exitDy=0;entryX=0.5;entryY=0;entryDx=0;entryDy=0;fontSize=17;strokeWidth=2;" parent="WIyWlLk6GJQsqaUBKTNV-1" source="nFD_2oVIBPOKL1Sue1Ed-73" target="nFD_2oVIBPOKL1Sue1Ed-82" edge="1">
          <mxGeometry relative="1" as="geometry" />
        </mxCell>
        <mxCell id="nFD_2oVIBPOKL1Sue1Ed-73" value="" style="rounded=0;whiteSpace=wrap;html=1;strokeWidth=2;fillColor=#f8cecc;strokeColor=#b85450;" parent="WIyWlLk6GJQsqaUBKTNV-1" vertex="1">
          <mxGeometry x="1349" y="440" width="120" height="50" as="geometry" />
        </mxCell>
        <mxCell id="nFD_2oVIBPOKL1Sue1Ed-75" value="&lt;font style=&quot;font-size: 17px&quot;&gt;req&lt;/font&gt;" style="rounded=0;whiteSpace=wrap;html=1;strokeWidth=2;fillColor=#d5e8d4;strokeColor=#82b366;" parent="WIyWlLk6GJQsqaUBKTNV-1" vertex="1">
          <mxGeometry x="1356" y="450" width="40" height="30" as="geometry" />
        </mxCell>
        <mxCell id="nFD_2oVIBPOKL1Sue1Ed-76" value="&lt;font style=&quot;font-size: 17px&quot;&gt;resp&lt;/font&gt;" style="rounded=0;whiteSpace=wrap;html=1;strokeWidth=2;fillColor=#d5e8d4;strokeColor=#82b366;" parent="WIyWlLk6GJQsqaUBKTNV-1" vertex="1">
          <mxGeometry x="1412" y="450" width="50" height="30" as="geometry" />
        </mxCell>
        <mxCell id="nFD_2oVIBPOKL1Sue1Ed-77" style="edgeStyle=orthogonalEdgeStyle;curved=1;rounded=0;orthogonalLoop=1;jettySize=auto;html=1;exitX=0.5;exitY=1;exitDx=0;exitDy=0;entryX=0.5;entryY=0;entryDx=0;entryDy=0;fontSize=17;strokeWidth=2;" parent="WIyWlLk6GJQsqaUBKTNV-1" source="nFD_2oVIBPOKL1Sue1Ed-78" target="nFD_2oVIBPOKL1Sue1Ed-82" edge="1">
          <mxGeometry relative="1" as="geometry">
            <Array as="points">
              <mxPoint x="1569" y="525" />
              <mxPoint x="1343" y="525" />
            </Array>
          </mxGeometry>
        </mxCell>
        <mxCell id="nFD_2oVIBPOKL1Sue1Ed-78" value="" style="rounded=0;whiteSpace=wrap;html=1;strokeWidth=2;fillColor=#f8cecc;strokeColor=#b85450;" parent="WIyWlLk6GJQsqaUBKTNV-1" vertex="1">
          <mxGeometry x="1509" y="440" width="120" height="50" as="geometry" />
        </mxCell>
        <mxCell id="nFD_2oVIBPOKL1Sue1Ed-80" value="&lt;font style=&quot;font-size: 17px&quot;&gt;req&lt;/font&gt;" style="rounded=0;whiteSpace=wrap;html=1;strokeWidth=2;fillColor=#d5e8d4;strokeColor=#82b366;" parent="WIyWlLk6GJQsqaUBKTNV-1" vertex="1">
          <mxGeometry x="1516" y="450" width="40" height="30" as="geometry" />
        </mxCell>
        <mxCell id="nFD_2oVIBPOKL1Sue1Ed-81" value="&lt;font style=&quot;font-size: 17px&quot;&gt;resp&lt;/font&gt;" style="rounded=0;whiteSpace=wrap;html=1;strokeWidth=2;fillColor=#d5e8d4;strokeColor=#82b366;" parent="WIyWlLk6GJQsqaUBKTNV-1" vertex="1">
          <mxGeometry x="1572" y="450" width="50" height="30" as="geometry" />
        </mxCell>
        <mxCell id="nFD_2oVIBPOKL1Sue1Ed-82" value="&lt;font style=&quot;font-size: 17px&quot;&gt;&lt;i&gt;redis&lt;/i&gt;&lt;/font&gt;" style="rounded=0;whiteSpace=wrap;html=1;strokeWidth=2;fillColor=#f8cecc;strokeColor=#b85450;" parent="WIyWlLk6GJQsqaUBKTNV-1" vertex="1">
          <mxGeometry x="1290" y="560" width="106" height="50" as="geometry" />
        </mxCell>
        <mxCell id="nFD_2oVIBPOKL1Sue1Ed-84" value="" style="edgeStyle=orthogonalEdgeStyle;rounded=0;orthogonalLoop=1;jettySize=auto;html=1;fontSize=17;strokeWidth=2;" parent="WIyWlLk6GJQsqaUBKTNV-1" target="nFD_2oVIBPOKL1Sue1Ed-54" edge="1">
          <mxGeometry relative="1" as="geometry">
            <mxPoint x="1329" y="120" as="sourcePoint" />
          </mxGeometry>
        </mxCell>
        <mxCell id="nFD_2oVIBPOKL1Sue1Ed-89" value="&lt;i&gt;&lt;font style=&quot;font-size: 17px&quot;&gt;request&lt;/font&gt;&lt;/i&gt;" style="text;html=1;strokeColor=none;fillColor=none;align=center;verticalAlign=middle;whiteSpace=wrap;rounded=0;dashed=1;fontSize=17;" parent="WIyWlLk6GJQsqaUBKTNV-1" vertex="1">
          <mxGeometry x="1339" y="110" width="70" height="30" as="geometry" />
        </mxCell>
        <mxCell id="nFD_2oVIBPOKL1Sue1Ed-97" style="rounded=0;orthogonalLoop=1;jettySize=auto;html=1;exitX=1;exitY=0.5;exitDx=0;exitDy=0;entryX=0;entryY=0;entryDx=0;entryDy=27.5;entryPerimeter=0;fontSize=15;strokeWidth=2;" parent="WIyWlLk6GJQsqaUBKTNV-1" source="nFD_2oVIBPOKL1Sue1Ed-90" target="nFD_2oVIBPOKL1Sue1Ed-51" edge="1">
          <mxGeometry relative="1" as="geometry" />
        </mxCell>
        <mxCell id="nFD_2oVIBPOKL1Sue1Ed-98" value="batch load" style="edgeLabel;html=1;align=center;verticalAlign=middle;resizable=0;points=[];fontSize=15;" parent="nFD_2oVIBPOKL1Sue1Ed-97" vertex="1" connectable="0">
          <mxGeometry x="0.0698" y="1" relative="1" as="geometry">
            <mxPoint x="4" as="offset" />
          </mxGeometry>
        </mxCell>
        <mxCell id="nFD_2oVIBPOKL1Sue1Ed-90" value="&lt;font style=&quot;font-size: 17px&quot;&gt;ceph&lt;/font&gt;" style="rounded=0;whiteSpace=wrap;html=1;strokeWidth=2;fillColor=#d5e8d4;strokeColor=#82b366;" parent="WIyWlLk6GJQsqaUBKTNV-1" vertex="1">
          <mxGeometry x="820" y="175" width="80" height="40" as="geometry" />
        </mxCell>
        <mxCell id="nFD_2oVIBPOKL1Sue1Ed-94" style="rounded=0;orthogonalLoop=1;jettySize=auto;html=1;exitX=1;exitY=0.5;exitDx=0;exitDy=0;entryX=0;entryY=0;entryDx=0;entryDy=52.5;entryPerimeter=0;fontSize=15;strokeWidth=2;" parent="WIyWlLk6GJQsqaUBKTNV-1" source="nFD_2oVIBPOKL1Sue1Ed-91" target="nFD_2oVIBPOKL1Sue1Ed-51" edge="1">
          <mxGeometry relative="1" as="geometry" />
        </mxCell>
        <mxCell id="nFD_2oVIBPOKL1Sue1Ed-95" value="delta load" style="edgeLabel;html=1;align=center;verticalAlign=middle;resizable=0;points=[];fontSize=15;" parent="nFD_2oVIBPOKL1Sue1Ed-94" vertex="1" connectable="0">
          <mxGeometry x="0.5027" relative="1" as="geometry">
            <mxPoint x="-30" y="-1" as="offset" />
          </mxGeometry>
        </mxCell>
        <mxCell id="nFD_2oVIBPOKL1Sue1Ed-91" value="&lt;font style=&quot;font-size: 17px&quot;&gt;kafka&lt;/font&gt;" style="rounded=0;whiteSpace=wrap;html=1;strokeWidth=2;fillColor=#d5e8d4;strokeColor=#82b366;" parent="WIyWlLk6GJQsqaUBKTNV-1" vertex="1">
          <mxGeometry x="820" y="235" width="80" height="40" as="geometry" />
        </mxCell>
        <mxCell id="nFD_2oVIBPOKL1Sue1Ed-100" value="&lt;i&gt;&lt;font style=&quot;font-size: 17px&quot;&gt;gcms_server&lt;/font&gt;&lt;/i&gt;" style="text;html=1;strokeColor=none;fillColor=none;align=center;verticalAlign=middle;whiteSpace=wrap;rounded=0;dashed=1;fontSize=17;" parent="WIyWlLk6GJQsqaUBKTNV-1" vertex="1">
          <mxGeometry x="1529" y="180" width="93" height="30" as="geometry" />
        </mxCell>
        <mxCell id="TSMwA70nFVANoA3377Jf-9" value="" style="edgeStyle=orthogonalEdgeStyle;rounded=0;orthogonalLoop=1;jettySize=auto;html=1;strokeWidth=2;" edge="1" parent="WIyWlLk6GJQsqaUBKTNV-1" source="eTbH8zUezfd2LbvNM2vZ-0" target="eTbH8zUezfd2LbvNM2vZ-1">
          <mxGeometry relative="1" as="geometry" />
        </mxCell>
        <mxCell id="eTbH8zUezfd2LbvNM2vZ-0" value="&lt;span style=&quot;font-size: 17px&quot;&gt;rec_front&lt;/span&gt;" style="rounded=0;whiteSpace=wrap;html=1;strokeWidth=2;fillColor=#e1d5e7;strokeColor=#9673a6;" parent="WIyWlLk6GJQsqaUBKTNV-1" vertex="1">
          <mxGeometry x="2810" y="60" width="106" height="50" as="geometry" />
        </mxCell>
        <mxCell id="TSMwA70nFVANoA3377Jf-10" value="" style="edgeStyle=orthogonalEdgeStyle;rounded=0;orthogonalLoop=1;jettySize=auto;html=1;strokeWidth=2;" edge="1" parent="WIyWlLk6GJQsqaUBKTNV-1" source="eTbH8zUezfd2LbvNM2vZ-1" target="eTbH8zUezfd2LbvNM2vZ-2">
          <mxGeometry relative="1" as="geometry" />
        </mxCell>
        <mxCell id="TSMwA70nFVANoA3377Jf-11" value="" style="edgeStyle=orthogonalEdgeStyle;rounded=0;orthogonalLoop=1;jettySize=auto;html=1;strokeWidth=2;" edge="1" parent="WIyWlLk6GJQsqaUBKTNV-1" source="eTbH8zUezfd2LbvNM2vZ-1" target="eTbH8zUezfd2LbvNM2vZ-3">
          <mxGeometry relative="1" as="geometry" />
        </mxCell>
        <mxCell id="TSMwA70nFVANoA3377Jf-12" value="" style="edgeStyle=orthogonalEdgeStyle;rounded=0;orthogonalLoop=1;jettySize=auto;html=1;strokeWidth=2;" edge="1" parent="WIyWlLk6GJQsqaUBKTNV-1" source="eTbH8zUezfd2LbvNM2vZ-1" target="eTbH8zUezfd2LbvNM2vZ-6">
          <mxGeometry relative="1" as="geometry" />
        </mxCell>
        <mxCell id="eTbH8zUezfd2LbvNM2vZ-1" value="&lt;span style=&quot;font-size: 17px&quot;&gt;gr&lt;/span&gt;" style="rounded=0;whiteSpace=wrap;html=1;strokeWidth=2;fillColor=#e1d5e7;strokeColor=#9673a6;" parent="WIyWlLk6GJQsqaUBKTNV-1" vertex="1">
          <mxGeometry x="2810" y="160" width="106" height="50" as="geometry" />
        </mxCell>
        <mxCell id="eTbH8zUezfd2LbvNM2vZ-2" value="&lt;span style=&quot;font-size: 17px&quot;&gt;rerank&lt;/span&gt;" style="rounded=0;whiteSpace=wrap;html=1;strokeWidth=2;fillColor=#e1d5e7;strokeColor=#9673a6;" parent="WIyWlLk6GJQsqaUBKTNV-1" vertex="1">
          <mxGeometry x="2620" y="160" width="106" height="50" as="geometry" />
        </mxCell>
        <mxCell id="TSMwA70nFVANoA3377Jf-17" style="edgeStyle=orthogonalEdgeStyle;curved=1;rounded=0;orthogonalLoop=1;jettySize=auto;html=1;exitX=0.5;exitY=1;exitDx=0;exitDy=0;entryX=0.5;entryY=0;entryDx=0;entryDy=0;strokeWidth=2;" edge="1" parent="WIyWlLk6GJQsqaUBKTNV-1" source="eTbH8zUezfd2LbvNM2vZ-3" target="eTbH8zUezfd2LbvNM2vZ-4">
          <mxGeometry relative="1" as="geometry" />
        </mxCell>
        <mxCell id="TSMwA70nFVANoA3377Jf-18" style="edgeStyle=orthogonalEdgeStyle;curved=1;rounded=0;orthogonalLoop=1;jettySize=auto;html=1;exitX=0.5;exitY=1;exitDx=0;exitDy=0;entryX=0.5;entryY=0;entryDx=0;entryDy=0;strokeWidth=2;" edge="1" parent="WIyWlLk6GJQsqaUBKTNV-1" source="eTbH8zUezfd2LbvNM2vZ-3" target="eTbH8zUezfd2LbvNM2vZ-5">
          <mxGeometry relative="1" as="geometry" />
        </mxCell>
        <mxCell id="eTbH8zUezfd2LbvNM2vZ-3" value="&lt;span style=&quot;font-size: 17px&quot;&gt;recall_proxy&lt;/span&gt;" style="rounded=0;whiteSpace=wrap;html=1;strokeWidth=2;fillColor=#e1d5e7;strokeColor=#9673a6;" parent="WIyWlLk6GJQsqaUBKTNV-1" vertex="1">
          <mxGeometry x="2810" y="260" width="106" height="50" as="geometry" />
        </mxCell>
        <mxCell id="eTbH8zUezfd2LbvNM2vZ-4" value="&lt;span style=&quot;font-size: 17px&quot;&gt;grc_service&lt;/span&gt;" style="rounded=0;whiteSpace=wrap;html=1;strokeWidth=2;fillColor=#e1d5e7;strokeColor=#9673a6;" parent="WIyWlLk6GJQsqaUBKTNV-1" vertex="1">
          <mxGeometry x="2726" y="350" width="106" height="50" as="geometry" />
        </mxCell>
        <mxCell id="eTbH8zUezfd2LbvNM2vZ-5" value="&lt;span style=&quot;font-size: 17px&quot;&gt;model_recall&lt;/span&gt;" style="rounded=0;whiteSpace=wrap;html=1;strokeWidth=2;fillColor=#e1d5e7;strokeColor=#9673a6;" parent="WIyWlLk6GJQsqaUBKTNV-1" vertex="1">
          <mxGeometry x="2890" y="350" width="106" height="50" as="geometry" />
        </mxCell>
        <mxCell id="TSMwA70nFVANoA3377Jf-15" style="edgeStyle=orthogonalEdgeStyle;curved=1;rounded=0;orthogonalLoop=1;jettySize=auto;html=1;exitX=0.5;exitY=1;exitDx=0;exitDy=0;entryX=0.5;entryY=0;entryDx=0;entryDy=0;strokeWidth=2;" edge="1" parent="WIyWlLk6GJQsqaUBKTNV-1" source="eTbH8zUezfd2LbvNM2vZ-6" target="eTbH8zUezfd2LbvNM2vZ-7">
          <mxGeometry relative="1" as="geometry" />
        </mxCell>
        <mxCell id="TSMwA70nFVANoA3377Jf-16" style="edgeStyle=orthogonalEdgeStyle;curved=1;rounded=0;orthogonalLoop=1;jettySize=auto;html=1;exitX=0.5;exitY=1;exitDx=0;exitDy=0;entryX=0.5;entryY=0;entryDx=0;entryDy=0;strokeWidth=2;" edge="1" parent="WIyWlLk6GJQsqaUBKTNV-1" source="eTbH8zUezfd2LbvNM2vZ-6" target="eTbH8zUezfd2LbvNM2vZ-8">
          <mxGeometry relative="1" as="geometry" />
        </mxCell>
        <mxCell id="eTbH8zUezfd2LbvNM2vZ-6" value="&lt;span style=&quot;font-size: 17px&quot;&gt;router&lt;/span&gt;" style="rounded=0;whiteSpace=wrap;html=1;strokeWidth=2;fillColor=#e1d5e7;strokeColor=#9673a6;" parent="WIyWlLk6GJQsqaUBKTNV-1" vertex="1">
          <mxGeometry x="3100" y="160" width="106" height="50" as="geometry" />
        </mxCell>
        <mxCell id="eTbH8zUezfd2LbvNM2vZ-7" value="&lt;span style=&quot;font-size: 17px&quot;&gt;basic_rank&lt;/span&gt;" style="rounded=0;whiteSpace=wrap;html=1;strokeWidth=2;fillColor=#e1d5e7;strokeColor=#9673a6;" parent="WIyWlLk6GJQsqaUBKTNV-1" vertex="1">
          <mxGeometry x="3030" y="250" width="106" height="50" as="geometry" />
        </mxCell>
        <mxCell id="eTbH8zUezfd2LbvNM2vZ-8" value="&lt;span style=&quot;font-size: 17px&quot;&gt;predict&lt;/span&gt;" style="rounded=0;whiteSpace=wrap;html=1;strokeWidth=2;fillColor=#e1d5e7;strokeColor=#9673a6;" parent="WIyWlLk6GJQsqaUBKTNV-1" vertex="1">
          <mxGeometry x="3170" y="250" width="106" height="50" as="geometry" />
        </mxCell>
        <mxCell id="TSMwA70nFVANoA3377Jf-20" value="" style="edgeStyle=orthogonalEdgeStyle;rounded=0;orthogonalLoop=1;jettySize=auto;html=1;strokeWidth=2;" edge="1" parent="WIyWlLk6GJQsqaUBKTNV-1" source="TSMwA70nFVANoA3377Jf-0" target="TSMwA70nFVANoA3377Jf-1">
          <mxGeometry relative="1" as="geometry" />
        </mxCell>
        <mxCell id="TSMwA70nFVANoA3377Jf-0" value="&lt;span style=&quot;font-size: 17px&quot;&gt;数据源&lt;/span&gt;" style="rounded=0;whiteSpace=wrap;html=1;strokeWidth=2;fillColor=#d5e8d4;strokeColor=#82b366;" vertex="1" parent="WIyWlLk6GJQsqaUBKTNV-1">
          <mxGeometry x="2210" y="-40" width="106" height="50" as="geometry" />
        </mxCell>
        <mxCell id="TSMwA70nFVANoA3377Jf-21" value="" style="edgeStyle=orthogonalEdgeStyle;rounded=0;orthogonalLoop=1;jettySize=auto;html=1;strokeWidth=2;" edge="1" parent="WIyWlLk6GJQsqaUBKTNV-1" source="TSMwA70nFVANoA3377Jf-1" target="TSMwA70nFVANoA3377Jf-2">
          <mxGeometry relative="1" as="geometry" />
        </mxCell>
        <mxCell id="TSMwA70nFVANoA3377Jf-1" value="&lt;span style=&quot;font-size: 17px&quot;&gt;内容平台&lt;br&gt;&lt;/span&gt;" style="rounded=0;whiteSpace=wrap;html=1;strokeWidth=2;fillColor=#d5e8d4;strokeColor=#82b366;" vertex="1" parent="WIyWlLk6GJQsqaUBKTNV-1">
          <mxGeometry x="2210" y="50" width="106" height="50" as="geometry" />
        </mxCell>
        <mxCell id="TSMwA70nFVANoA3377Jf-22" value="" style="edgeStyle=orthogonalEdgeStyle;rounded=0;orthogonalLoop=1;jettySize=auto;html=1;strokeWidth=2;" edge="1" parent="WIyWlLk6GJQsqaUBKTNV-1" source="TSMwA70nFVANoA3377Jf-2" target="TSMwA70nFVANoA3377Jf-3">
          <mxGeometry relative="1" as="geometry" />
        </mxCell>
        <mxCell id="TSMwA70nFVANoA3377Jf-2" value="&lt;span style=&quot;font-size: 17px&quot;&gt;AI内容理解&lt;br&gt;&lt;/span&gt;" style="rounded=0;whiteSpace=wrap;html=1;strokeWidth=2;fillColor=#d5e8d4;strokeColor=#82b366;" vertex="1" parent="WIyWlLk6GJQsqaUBKTNV-1">
          <mxGeometry x="2210" y="125" width="106" height="50" as="geometry" />
        </mxCell>
        <mxCell id="TSMwA70nFVANoA3377Jf-23" style="edgeStyle=orthogonalEdgeStyle;rounded=0;orthogonalLoop=1;jettySize=auto;html=1;exitX=1;exitY=0.5;exitDx=0;exitDy=0;entryX=0;entryY=0.5;entryDx=0;entryDy=0;entryPerimeter=0;strokeWidth=2;curved=1;" edge="1" parent="WIyWlLk6GJQsqaUBKTNV-1" source="TSMwA70nFVANoA3377Jf-3" target="TSMwA70nFVANoA3377Jf-7">
          <mxGeometry relative="1" as="geometry" />
        </mxCell>
        <mxCell id="TSMwA70nFVANoA3377Jf-24" style="edgeStyle=orthogonalEdgeStyle;curved=1;rounded=0;orthogonalLoop=1;jettySize=auto;html=1;exitX=1;exitY=0.5;exitDx=0;exitDy=0;entryX=0;entryY=0.5;entryDx=0;entryDy=0;entryPerimeter=0;strokeWidth=2;" edge="1" parent="WIyWlLk6GJQsqaUBKTNV-1" source="TSMwA70nFVANoA3377Jf-3" target="TSMwA70nFVANoA3377Jf-8">
          <mxGeometry relative="1" as="geometry" />
        </mxCell>
        <mxCell id="TSMwA70nFVANoA3377Jf-43" style="edgeStyle=orthogonalEdgeStyle;rounded=0;orthogonalLoop=1;jettySize=auto;html=1;exitX=1;exitY=0.5;exitDx=0;exitDy=0;entryX=0;entryY=0;entryDx=0;entryDy=45;entryPerimeter=0;fontSize=15;strokeColor=#000000;strokeWidth=2;curved=1;" edge="1" parent="WIyWlLk6GJQsqaUBKTNV-1" source="TSMwA70nFVANoA3377Jf-3" target="TSMwA70nFVANoA3377Jf-42">
          <mxGeometry relative="1" as="geometry" />
        </mxCell>
        <mxCell id="TSMwA70nFVANoA3377Jf-3" value="&lt;span style=&quot;font-size: 17px&quot;&gt;智平内容理解&lt;br&gt;&lt;/span&gt;" style="rounded=0;whiteSpace=wrap;html=1;strokeWidth=2;fillColor=#d5e8d4;strokeColor=#82b366;" vertex="1" parent="WIyWlLk6GJQsqaUBKTNV-1">
          <mxGeometry x="2210" y="280" width="106" height="50" as="geometry" />
        </mxCell>
        <mxCell id="TSMwA70nFVANoA3377Jf-19" style="edgeStyle=orthogonalEdgeStyle;rounded=0;orthogonalLoop=1;jettySize=auto;html=1;exitX=0.5;exitY=1;exitDx=0;exitDy=0;entryX=0.5;entryY=0;entryDx=0;entryDy=0;strokeWidth=2;" edge="1" parent="WIyWlLk6GJQsqaUBKTNV-1" source="TSMwA70nFVANoA3377Jf-6" target="eTbH8zUezfd2LbvNM2vZ-0">
          <mxGeometry relative="1" as="geometry" />
        </mxCell>
        <mxCell id="TSMwA70nFVANoA3377Jf-6" value="&lt;span style=&quot;font-size: 17px&quot;&gt;南京服务端&lt;/span&gt;" style="rounded=0;whiteSpace=wrap;html=1;strokeWidth=2;fillColor=#f8cecc;strokeColor=#b85450;" vertex="1" parent="WIyWlLk6GJQsqaUBKTNV-1">
          <mxGeometry x="2810" y="-40" width="106" height="50" as="geometry" />
        </mxCell>
        <mxCell id="TSMwA70nFVANoA3377Jf-45" style="edgeStyle=orthogonalEdgeStyle;curved=1;rounded=0;orthogonalLoop=1;jettySize=auto;html=1;exitX=1;exitY=0.5;exitDx=0;exitDy=0;exitPerimeter=0;entryX=0;entryY=0.5;entryDx=0;entryDy=0;fontSize=15;strokeColor=#000000;strokeWidth=2;" edge="1" parent="WIyWlLk6GJQsqaUBKTNV-1" source="TSMwA70nFVANoA3377Jf-7" target="TSMwA70nFVANoA3377Jf-44">
          <mxGeometry relative="1" as="geometry" />
        </mxCell>
        <mxCell id="TSMwA70nFVANoA3377Jf-7" value="正排词典" style="shape=cylinder3;whiteSpace=wrap;html=1;boundedLbl=1;backgroundOutline=1;size=15;fillColor=#ffe6cc;strokeColor=#d79b00;" vertex="1" parent="WIyWlLk6GJQsqaUBKTNV-1">
          <mxGeometry x="2370" y="190" width="60" height="70" as="geometry" />
        </mxCell>
        <mxCell id="TSMwA70nFVANoA3377Jf-46" style="edgeStyle=orthogonalEdgeStyle;curved=1;rounded=0;orthogonalLoop=1;jettySize=auto;html=1;exitX=1;exitY=0.5;exitDx=0;exitDy=0;exitPerimeter=0;fontSize=15;strokeColor=#000000;strokeWidth=2;" edge="1" parent="WIyWlLk6GJQsqaUBKTNV-1" source="TSMwA70nFVANoA3377Jf-8">
          <mxGeometry relative="1" as="geometry">
            <mxPoint x="2470" y="305" as="targetPoint" />
          </mxGeometry>
        </mxCell>
        <mxCell id="TSMwA70nFVANoA3377Jf-8" value="正排redis" style="shape=cylinder3;whiteSpace=wrap;html=1;boundedLbl=1;backgroundOutline=1;size=15;fillColor=#ffe6cc;strokeColor=#d79b00;" vertex="1" parent="WIyWlLk6GJQsqaUBKTNV-1">
          <mxGeometry x="2370" y="270" width="60" height="70" as="geometry" />
        </mxCell>
        <mxCell id="TSMwA70nFVANoA3377Jf-26" value="&lt;b&gt;&lt;font style=&quot;font-size: 15px&quot;&gt;重排&lt;/font&gt;&lt;/b&gt;" style="text;html=1;strokeColor=none;fillColor=none;align=center;verticalAlign=middle;whiteSpace=wrap;rounded=0;dashed=1;" vertex="1" parent="WIyWlLk6GJQsqaUBKTNV-1">
          <mxGeometry x="2608" y="130" width="60" height="30" as="geometry" />
        </mxCell>
        <mxCell id="TSMwA70nFVANoA3377Jf-28" value="&lt;b&gt;&lt;font style=&quot;font-size: 15px&quot;&gt;召回&lt;/font&gt;&lt;/b&gt;" style="text;html=1;strokeColor=none;fillColor=none;align=center;verticalAlign=middle;whiteSpace=wrap;rounded=0;dashed=1;" vertex="1" parent="WIyWlLk6GJQsqaUBKTNV-1">
          <mxGeometry x="2710" y="250" width="60" height="30" as="geometry" />
        </mxCell>
        <mxCell id="TSMwA70nFVANoA3377Jf-30" value="&lt;b&gt;&lt;font style=&quot;font-size: 15px&quot;&gt;预估&lt;/font&gt;&lt;/b&gt;" style="text;html=1;strokeColor=none;fillColor=none;align=center;verticalAlign=middle;whiteSpace=wrap;rounded=0;dashed=1;" vertex="1" parent="WIyWlLk6GJQsqaUBKTNV-1">
          <mxGeometry x="3021" y="140" width="60" height="30" as="geometry" />
        </mxCell>
        <mxCell id="TSMwA70nFVANoA3377Jf-32" value="&lt;b&gt;&lt;font style=&quot;font-size: 15px&quot;&gt;正排数据&lt;/font&gt;&lt;/b&gt;" style="text;html=1;strokeColor=none;fillColor=none;align=center;verticalAlign=middle;whiteSpace=wrap;rounded=0;dashed=1;" vertex="1" parent="WIyWlLk6GJQsqaUBKTNV-1">
          <mxGeometry x="2338" y="160" width="72" height="30" as="geometry" />
        </mxCell>
        <mxCell id="TSMwA70nFVANoA3377Jf-47" style="edgeStyle=orthogonalEdgeStyle;curved=1;rounded=0;orthogonalLoop=1;jettySize=auto;html=1;exitX=1;exitY=0.5;exitDx=0;exitDy=0;exitPerimeter=0;entryX=0;entryY=0.75;entryDx=0;entryDy=0;fontSize=15;strokeColor=#000000;strokeWidth=2;" edge="1" parent="WIyWlLk6GJQsqaUBKTNV-1" source="TSMwA70nFVANoA3377Jf-42" target="TSMwA70nFVANoA3377Jf-44">
          <mxGeometry relative="1" as="geometry" />
        </mxCell>
        <mxCell id="TSMwA70nFVANoA3377Jf-42" value="正排kakka" style="shape=cylinder3;whiteSpace=wrap;html=1;boundedLbl=1;backgroundOutline=1;size=15;fillColor=#ffe6cc;strokeColor=#d79b00;" vertex="1" parent="WIyWlLk6GJQsqaUBKTNV-1">
          <mxGeometry x="2370" y="350" width="60" height="70" as="geometry" />
        </mxCell>
        <mxCell id="TSMwA70nFVANoA3377Jf-44" value="&lt;span style=&quot;font-size: 17px&quot;&gt;正排服务&lt;/span&gt;" style="rounded=0;whiteSpace=wrap;html=1;strokeWidth=2;fillColor=#ffe6cc;strokeColor=#d79b00;" vertex="1" parent="WIyWlLk6GJQsqaUBKTNV-1">
          <mxGeometry x="2470" y="275" width="106" height="50" as="geometry" />
        </mxCell>
        <mxCell id="TSMwA70nFVANoA3377Jf-53" style="rounded=0;orthogonalLoop=1;jettySize=auto;html=1;exitX=0.5;exitY=1;exitDx=0;exitDy=0;entryX=1;entryY=0.5;entryDx=0;entryDy=0;fontSize=13;strokeColor=#007FFF;strokeWidth=2;dashed=1;" edge="1" parent="WIyWlLk6GJQsqaUBKTNV-1" source="TSMwA70nFVANoA3377Jf-48" target="TSMwA70nFVANoA3377Jf-44">
          <mxGeometry relative="1" as="geometry" />
        </mxCell>
        <mxCell id="TSMwA70nFVANoA3377Jf-48" value="&lt;font style=&quot;font-size: 13px&quot;&gt;正排sdk&lt;/font&gt;" style="rounded=0;whiteSpace=wrap;html=1;strokeWidth=2;fillColor=#ffe6cc;strokeColor=#d79b00;" vertex="1" parent="WIyWlLk6GJQsqaUBKTNV-1">
          <mxGeometry x="2620" y="200" width="50" height="20" as="geometry" />
        </mxCell>
        <mxCell id="TSMwA70nFVANoA3377Jf-55" style="edgeStyle=none;rounded=0;orthogonalLoop=1;jettySize=auto;html=1;exitX=0;exitY=0.5;exitDx=0;exitDy=0;entryX=1;entryY=0.75;entryDx=0;entryDy=0;dashed=1;fontSize=13;strokeColor=#007FFF;strokeWidth=2;" edge="1" parent="WIyWlLk6GJQsqaUBKTNV-1" source="TSMwA70nFVANoA3377Jf-49" target="TSMwA70nFVANoA3377Jf-44">
          <mxGeometry relative="1" as="geometry" />
        </mxCell>
        <mxCell id="TSMwA70nFVANoA3377Jf-49" value="&lt;font style=&quot;font-size: 13px&quot;&gt;正排sdk&lt;/font&gt;" style="rounded=0;whiteSpace=wrap;html=1;strokeWidth=2;fillColor=#ffe6cc;strokeColor=#d79b00;" vertex="1" parent="WIyWlLk6GJQsqaUBKTNV-1">
          <mxGeometry x="2726" y="390" width="50" height="20" as="geometry" />
        </mxCell>
        <mxCell id="TSMwA70nFVANoA3377Jf-56" style="edgeStyle=none;rounded=0;orthogonalLoop=1;jettySize=auto;html=1;exitX=0;exitY=0.5;exitDx=0;exitDy=0;entryX=1;entryY=0.5;entryDx=0;entryDy=0;dashed=1;fontSize=13;strokeColor=#007FFF;strokeWidth=2;" edge="1" parent="WIyWlLk6GJQsqaUBKTNV-1" source="TSMwA70nFVANoA3377Jf-50" target="TSMwA70nFVANoA3377Jf-44">
          <mxGeometry relative="1" as="geometry" />
        </mxCell>
        <mxCell id="TSMwA70nFVANoA3377Jf-50" value="&lt;font style=&quot;font-size: 13px&quot;&gt;正排sdk&lt;/font&gt;" style="rounded=0;whiteSpace=wrap;html=1;strokeWidth=2;fillColor=#ffe6cc;strokeColor=#d79b00;" vertex="1" parent="WIyWlLk6GJQsqaUBKTNV-1">
          <mxGeometry x="2890" y="390" width="50" height="20" as="geometry" />
        </mxCell>
        <mxCell id="TSMwA70nFVANoA3377Jf-54" style="edgeStyle=none;rounded=0;orthogonalLoop=1;jettySize=auto;html=1;exitX=0;exitY=0.5;exitDx=0;exitDy=0;entryX=1;entryY=0.5;entryDx=0;entryDy=0;dashed=1;fontSize=13;strokeColor=#007FFF;strokeWidth=2;" edge="1" parent="WIyWlLk6GJQsqaUBKTNV-1" source="TSMwA70nFVANoA3377Jf-51" target="TSMwA70nFVANoA3377Jf-44">
          <mxGeometry relative="1" as="geometry" />
        </mxCell>
        <mxCell id="TSMwA70nFVANoA3377Jf-51" value="&lt;font style=&quot;font-size: 13px&quot;&gt;正排sdk&lt;/font&gt;" style="rounded=0;whiteSpace=wrap;html=1;strokeWidth=2;fillColor=#ffe6cc;strokeColor=#d79b00;" vertex="1" parent="WIyWlLk6GJQsqaUBKTNV-1">
          <mxGeometry x="2810" y="300" width="50" height="20" as="geometry" />
        </mxCell>
        <mxCell id="TSMwA70nFVANoA3377Jf-52" value="&lt;font style=&quot;font-size: 13px&quot;&gt;正排sdk&lt;/font&gt;" style="rounded=0;whiteSpace=wrap;html=1;strokeWidth=2;fillColor=#ffe6cc;strokeColor=#d79b00;" vertex="1" parent="WIyWlLk6GJQsqaUBKTNV-1">
          <mxGeometry x="3100" y="195" width="50" height="20" as="geometry" />
        </mxCell>
      </root>
    </mxGraphModel>
  </diagram>
</mxfile>
